<mxfile host="app.diagrams.net" modified="2021-10-20T07:17:05.345Z" agent="5.0 (Windows NT 10.0; Win64; x64) AppleWebKit/537.36 (KHTML, like Gecko) Chrome/94.0.4606.81 Safari/537.36 Edg/94.0.992.50" etag="jrewbRWn149hCdtls4LT" version="15.5.6" type="github">
  <diagram id="wFE0QG_FPsp0jaGvCLVb" name="Page-1">
    <mxGraphModel dx="990" dy="579" grid="1" gridSize="10" guides="1" tooltips="1" connect="1" arrows="1" fold="1" page="1" pageScale="1" pageWidth="850" pageHeight="1100" math="0" shadow="0">
      <root>
        <mxCell id="0" />
        <mxCell id="1" parent="0" />
        <mxCell id="ohssaYc-0jz3KBxIe88S-2" value="Bucharest" style="ellipse;whiteSpace=wrap;html=1;aspect=fixed;fillColor=#FF0000;fontColor=#FFFFFF;" vertex="1" parent="1">
          <mxGeometry x="380" y="150" width="60" height="60" as="geometry" />
        </mxCell>
        <mxCell id="ohssaYc-0jz3KBxIe88S-3" value="" style="endArrow=classic;html=1;rounded=0;exitX=0;exitY=1;exitDx=0;exitDy=0;entryX=0.667;entryY=-0.017;entryDx=0;entryDy=0;entryPerimeter=0;" edge="1" parent="1" source="ohssaYc-0jz3KBxIe88S-2" target="ohssaYc-0jz3KBxIe88S-5">
          <mxGeometry width="50" height="50" relative="1" as="geometry">
            <mxPoint x="390" y="200" as="sourcePoint" />
            <mxPoint x="340" y="250" as="targetPoint" />
            <Array as="points" />
          </mxGeometry>
        </mxCell>
        <mxCell id="ohssaYc-0jz3KBxIe88S-4" value="Giurgiu" style="ellipse;whiteSpace=wrap;html=1;aspect=fixed;fillColor=#FFFF00;" vertex="1" parent="1">
          <mxGeometry x="380" y="270" width="60" height="60" as="geometry" />
        </mxCell>
        <mxCell id="ohssaYc-0jz3KBxIe88S-5" value="Urzeceni" style="ellipse;whiteSpace=wrap;html=1;aspect=fixed;fillColor=#FFFF00;" vertex="1" parent="1">
          <mxGeometry x="280" y="270" width="60" height="60" as="geometry" />
        </mxCell>
        <mxCell id="ohssaYc-0jz3KBxIe88S-6" value="" style="endArrow=classic;html=1;rounded=0;exitX=0.5;exitY=1;exitDx=0;exitDy=0;entryX=0.5;entryY=0;entryDx=0;entryDy=0;" edge="1" parent="1" source="ohssaYc-0jz3KBxIe88S-2" target="ohssaYc-0jz3KBxIe88S-4">
          <mxGeometry width="50" height="50" relative="1" as="geometry">
            <mxPoint x="420" y="220" as="sourcePoint" />
            <mxPoint x="410" y="270" as="targetPoint" />
          </mxGeometry>
        </mxCell>
        <mxCell id="ohssaYc-0jz3KBxIe88S-8" value="" style="endArrow=classic;html=1;rounded=0;exitX=1;exitY=1;exitDx=0;exitDy=0;entryX=0.5;entryY=0;entryDx=0;entryDy=0;" edge="1" parent="1" source="ohssaYc-0jz3KBxIe88S-2" target="ohssaYc-0jz3KBxIe88S-9">
          <mxGeometry width="50" height="50" relative="1" as="geometry">
            <mxPoint x="450" y="360" as="sourcePoint" />
            <mxPoint x="490" y="260" as="targetPoint" />
          </mxGeometry>
        </mxCell>
        <mxCell id="ohssaYc-0jz3KBxIe88S-9" value="Pitesti" style="ellipse;whiteSpace=wrap;html=1;aspect=fixed;fillColor=#FFFF00;" vertex="1" parent="1">
          <mxGeometry x="480" y="270" width="60" height="60" as="geometry" />
        </mxCell>
        <mxCell id="ohssaYc-0jz3KBxIe88S-10" value="85" style="text;html=1;align=center;verticalAlign=middle;resizable=0;points=[];autosize=1;strokeColor=none;fillColor=none;" vertex="1" parent="1">
          <mxGeometry x="320" y="220" width="30" height="20" as="geometry" />
        </mxCell>
        <mxCell id="ohssaYc-0jz3KBxIe88S-11" value="90" style="text;html=1;align=center;verticalAlign=middle;resizable=0;points=[];autosize=1;strokeColor=none;fillColor=none;" vertex="1" parent="1">
          <mxGeometry x="380" y="220" width="30" height="20" as="geometry" />
        </mxCell>
        <mxCell id="ohssaYc-0jz3KBxIe88S-12" value="101" style="text;html=1;align=center;verticalAlign=middle;resizable=0;points=[];autosize=1;strokeColor=none;fillColor=none;" vertex="1" parent="1">
          <mxGeometry x="425" y="220" width="40" height="20" as="geometry" />
        </mxCell>
        <mxCell id="ohssaYc-0jz3KBxIe88S-13" value="" style="endArrow=classic;html=1;rounded=0;entryX=0.673;entryY=0.003;entryDx=0;entryDy=0;entryPerimeter=0;" edge="1" parent="1" target="ohssaYc-0jz3KBxIe88S-14">
          <mxGeometry width="50" height="50" relative="1" as="geometry">
            <mxPoint x="300" y="330" as="sourcePoint" />
            <mxPoint x="260" y="390" as="targetPoint" />
          </mxGeometry>
        </mxCell>
        <mxCell id="ohssaYc-0jz3KBxIe88S-14" value="Hirsova&lt;br&gt;183" style="ellipse;whiteSpace=wrap;html=1;aspect=fixed;fillColor=#FFFF00;" vertex="1" parent="1">
          <mxGeometry x="220" y="390" width="60" height="60" as="geometry" />
        </mxCell>
        <mxCell id="ohssaYc-0jz3KBxIe88S-15" value="" style="endArrow=classic;html=1;rounded=0;entryX=0.353;entryY=0.01;entryDx=0;entryDy=0;entryPerimeter=0;exitX=0.667;exitY=1;exitDx=0;exitDy=0;exitPerimeter=0;" edge="1" parent="1" source="ohssaYc-0jz3KBxIe88S-9" target="ohssaYc-0jz3KBxIe88S-16">
          <mxGeometry width="50" height="50" relative="1" as="geometry">
            <mxPoint x="530" y="330" as="sourcePoint" />
            <mxPoint x="520" y="400" as="targetPoint" />
          </mxGeometry>
        </mxCell>
        <mxCell id="ohssaYc-0jz3KBxIe88S-16" value="Riminicu&lt;br&gt;198" style="ellipse;whiteSpace=wrap;html=1;aspect=fixed;fillColor=#FFFF00;" vertex="1" parent="1">
          <mxGeometry x="530" y="380" width="60" height="60" as="geometry" />
        </mxCell>
        <mxCell id="ohssaYc-0jz3KBxIe88S-18" value="98" style="text;html=1;align=center;verticalAlign=middle;resizable=0;points=[];autosize=1;strokeColor=none;fillColor=none;" vertex="1" parent="1">
          <mxGeometry x="250" y="340" width="30" height="20" as="geometry" />
        </mxCell>
        <mxCell id="ohssaYc-0jz3KBxIe88S-19" value="97" style="text;html=1;align=center;verticalAlign=middle;resizable=0;points=[];autosize=1;strokeColor=none;fillColor=none;" vertex="1" parent="1">
          <mxGeometry x="510" y="350" width="30" height="20" as="geometry" />
        </mxCell>
        <mxCell id="ohssaYc-0jz3KBxIe88S-20" value="" style="endArrow=classic;html=1;rounded=0;exitX=1;exitY=0.5;exitDx=0;exitDy=0;entryX=0;entryY=0;entryDx=0;entryDy=0;" edge="1" parent="1" source="ohssaYc-0jz3KBxIe88S-2" target="ohssaYc-0jz3KBxIe88S-21">
          <mxGeometry width="50" height="50" relative="1" as="geometry">
            <mxPoint x="610" y="210" as="sourcePoint" />
            <mxPoint x="560" y="260" as="targetPoint" />
          </mxGeometry>
        </mxCell>
        <mxCell id="ohssaYc-0jz3KBxIe88S-21" value="Fagaras" style="ellipse;whiteSpace=wrap;html=1;aspect=fixed;fillColor=#FFFF00;" vertex="1" parent="1">
          <mxGeometry x="570" y="250" width="60" height="60" as="geometry" />
        </mxCell>
        <mxCell id="ohssaYc-0jz3KBxIe88S-22" value="211" style="text;html=1;align=center;verticalAlign=middle;resizable=0;points=[];autosize=1;strokeColor=none;fillColor=none;" vertex="1" parent="1">
          <mxGeometry x="480" y="190" width="30" height="20" as="geometry" />
        </mxCell>
        <mxCell id="ohssaYc-0jz3KBxIe88S-23" value="" style="endArrow=classic;html=1;rounded=0;entryX=0.353;entryY=0.037;entryDx=0;entryDy=0;entryPerimeter=0;exitX=1;exitY=1;exitDx=0;exitDy=0;" edge="1" parent="1" source="ohssaYc-0jz3KBxIe88S-5" target="ohssaYc-0jz3KBxIe88S-24">
          <mxGeometry width="50" height="50" relative="1" as="geometry">
            <mxPoint x="330" y="330" as="sourcePoint" />
            <mxPoint x="360" y="400" as="targetPoint" />
          </mxGeometry>
        </mxCell>
        <mxCell id="ohssaYc-0jz3KBxIe88S-24" value="Vaslui&lt;br&gt;227" style="ellipse;whiteSpace=wrap;html=1;aspect=fixed;fillColor=#FFFF00;" vertex="1" parent="1">
          <mxGeometry x="340" y="390" width="60" height="60" as="geometry" />
        </mxCell>
        <mxCell id="ohssaYc-0jz3KBxIe88S-25" value="142" style="text;html=1;align=center;verticalAlign=middle;resizable=0;points=[];autosize=1;strokeColor=none;fillColor=none;" vertex="1" parent="1">
          <mxGeometry x="300" y="340" width="40" height="20" as="geometry" />
        </mxCell>
        <mxCell id="ohssaYc-0jz3KBxIe88S-26" value="" style="endArrow=classic;html=1;rounded=0;exitX=0;exitY=1;exitDx=0;exitDy=0;entryX=0.5;entryY=0;entryDx=0;entryDy=0;" edge="1" parent="1" source="ohssaYc-0jz3KBxIe88S-9" target="ohssaYc-0jz3KBxIe88S-27">
          <mxGeometry width="50" height="50" relative="1" as="geometry">
            <mxPoint x="450" y="340" as="sourcePoint" />
            <mxPoint x="470" y="370" as="targetPoint" />
          </mxGeometry>
        </mxCell>
        <mxCell id="ohssaYc-0jz3KBxIe88S-27" value="Craiova&lt;br&gt;239" style="ellipse;whiteSpace=wrap;html=1;aspect=fixed;fillColor=#FFFF00;" vertex="1" parent="1">
          <mxGeometry x="435" y="380" width="60" height="60" as="geometry" />
        </mxCell>
        <mxCell id="ohssaYc-0jz3KBxIe88S-28" value="138" style="text;html=1;align=center;verticalAlign=middle;resizable=0;points=[];autosize=1;strokeColor=none;fillColor=none;" vertex="1" parent="1">
          <mxGeometry x="435" y="350" width="40" height="20" as="geometry" />
        </mxCell>
        <mxCell id="ohssaYc-0jz3KBxIe88S-29" value="" style="endArrow=classic;html=1;rounded=0;exitX=0.28;exitY=0.983;exitDx=0;exitDy=0;exitPerimeter=0;entryX=0.7;entryY=0.023;entryDx=0;entryDy=0;entryPerimeter=0;" edge="1" parent="1" source="ohssaYc-0jz3KBxIe88S-16" target="ohssaYc-0jz3KBxIe88S-30">
          <mxGeometry width="50" height="50" relative="1" as="geometry">
            <mxPoint x="550" y="470" as="sourcePoint" />
            <mxPoint x="520" y="500" as="targetPoint" />
          </mxGeometry>
        </mxCell>
        <mxCell id="ohssaYc-0jz3KBxIe88S-30" value="Sibiu&lt;br&gt;278" style="ellipse;whiteSpace=wrap;html=1;aspect=fixed;fillColor=#006600;fontColor=#FFFFFF;" vertex="1" parent="1">
          <mxGeometry x="510" y="500" width="60" height="60" as="geometry" />
        </mxCell>
        <mxCell id="ohssaYc-0jz3KBxIe88S-31" value="" style="endArrow=classic;html=1;rounded=0;exitX=1;exitY=1;exitDx=0;exitDy=0;entryX=0.34;entryY=-0.017;entryDx=0;entryDy=0;entryPerimeter=0;" edge="1" parent="1" source="ohssaYc-0jz3KBxIe88S-16" target="ohssaYc-0jz3KBxIe88S-32">
          <mxGeometry width="50" height="50" relative="1" as="geometry">
            <mxPoint x="610" y="440" as="sourcePoint" />
            <mxPoint x="600" y="500" as="targetPoint" />
          </mxGeometry>
        </mxCell>
        <mxCell id="ohssaYc-0jz3KBxIe88S-32" value="Craiova&lt;br&gt;344" style="ellipse;whiteSpace=wrap;html=1;aspect=fixed;" vertex="1" parent="1">
          <mxGeometry x="600" y="500" width="60" height="60" as="geometry" />
        </mxCell>
        <mxCell id="ohssaYc-0jz3KBxIe88S-33" value="80" style="text;html=1;align=center;verticalAlign=middle;resizable=0;points=[];autosize=1;strokeColor=none;fillColor=none;" vertex="1" parent="1">
          <mxGeometry x="510" y="450" width="30" height="20" as="geometry" />
        </mxCell>
        <mxCell id="ohssaYc-0jz3KBxIe88S-34" value="146" style="text;html=1;align=center;verticalAlign=middle;resizable=0;points=[];autosize=1;strokeColor=none;fillColor=none;" vertex="1" parent="1">
          <mxGeometry x="555" y="450" width="40" height="20" as="geometry" />
        </mxCell>
        <mxCell id="ohssaYc-0jz3KBxIe88S-35" value="" style="endArrow=classic;html=1;rounded=0;entryX=0.5;entryY=0;entryDx=0;entryDy=0;" edge="1" parent="1" target="ohssaYc-0jz3KBxIe88S-36">
          <mxGeometry width="50" height="50" relative="1" as="geometry">
            <mxPoint x="460" y="440" as="sourcePoint" />
            <mxPoint x="420" y="500" as="targetPoint" />
          </mxGeometry>
        </mxCell>
        <mxCell id="ohssaYc-0jz3KBxIe88S-36" value="Drobeta&lt;br&gt;359" style="ellipse;whiteSpace=wrap;html=1;aspect=fixed;" vertex="1" parent="1">
          <mxGeometry x="410" y="500" width="60" height="60" as="geometry" />
        </mxCell>
        <mxCell id="ohssaYc-0jz3KBxIe88S-37" value="" style="endArrow=classic;html=1;rounded=0;entryX=0.5;entryY=0;entryDx=0;entryDy=0;" edge="1" parent="1" target="ohssaYc-0jz3KBxIe88S-38">
          <mxGeometry width="50" height="50" relative="1" as="geometry">
            <mxPoint x="370" y="450" as="sourcePoint" />
            <mxPoint x="350" y="500" as="targetPoint" />
          </mxGeometry>
        </mxCell>
        <mxCell id="ohssaYc-0jz3KBxIe88S-38" value="Iasi&lt;br&gt;319" style="ellipse;whiteSpace=wrap;html=1;aspect=fixed;" vertex="1" parent="1">
          <mxGeometry x="330" y="500" width="50" height="50" as="geometry" />
        </mxCell>
        <mxCell id="ohssaYc-0jz3KBxIe88S-39" value="" style="endArrow=classic;html=1;rounded=0;" edge="1" parent="1" target="ohssaYc-0jz3KBxIe88S-40">
          <mxGeometry width="50" height="50" relative="1" as="geometry">
            <mxPoint x="240" y="450" as="sourcePoint" />
            <mxPoint x="220" y="490" as="targetPoint" />
          </mxGeometry>
        </mxCell>
        <mxCell id="ohssaYc-0jz3KBxIe88S-40" value="Efforie&lt;br&gt;269" style="ellipse;whiteSpace=wrap;html=1;aspect=fixed;fillColor=#FFFF00;" vertex="1" parent="1">
          <mxGeometry x="190" y="495" width="60" height="60" as="geometry" />
        </mxCell>
        <mxCell id="ohssaYc-0jz3KBxIe88S-41" value="92" style="text;html=1;align=center;verticalAlign=middle;resizable=0;points=[];autosize=1;strokeColor=none;fillColor=none;" vertex="1" parent="1">
          <mxGeometry x="330" y="460" width="30" height="20" as="geometry" />
        </mxCell>
        <mxCell id="ohssaYc-0jz3KBxIe88S-42" value="86" style="text;html=1;align=center;verticalAlign=middle;resizable=0;points=[];autosize=1;strokeColor=none;fillColor=none;" vertex="1" parent="1">
          <mxGeometry x="205" y="460" width="30" height="20" as="geometry" />
        </mxCell>
        <mxCell id="ohssaYc-0jz3KBxIe88S-43" value="" style="endArrow=classic;html=1;rounded=0;entryX=0.32;entryY=0.037;entryDx=0;entryDy=0;entryPerimeter=0;exitX=1;exitY=1;exitDx=0;exitDy=0;" edge="1" parent="1" source="ohssaYc-0jz3KBxIe88S-21" target="ohssaYc-0jz3KBxIe88S-44">
          <mxGeometry width="50" height="50" relative="1" as="geometry">
            <mxPoint x="605" y="315" as="sourcePoint" />
            <mxPoint x="650" y="360" as="targetPoint" />
          </mxGeometry>
        </mxCell>
        <mxCell id="ohssaYc-0jz3KBxIe88S-44" value="Sibiu&lt;br&gt;310" style="ellipse;whiteSpace=wrap;html=1;aspect=fixed;" vertex="1" parent="1">
          <mxGeometry x="630" y="360" width="60" height="60" as="geometry" />
        </mxCell>
        <mxCell id="ohssaYc-0jz3KBxIe88S-45" value="1st" style="text;html=1;align=center;verticalAlign=middle;resizable=0;points=[];autosize=1;strokeColor=none;fillColor=none;" vertex="1" parent="1">
          <mxGeometry x="350" y="170" width="30" height="20" as="geometry" />
        </mxCell>
        <mxCell id="ohssaYc-0jz3KBxIe88S-46" value="2nd" style="text;html=1;align=center;verticalAlign=middle;resizable=0;points=[];autosize=1;strokeColor=none;fillColor=none;" vertex="1" parent="1">
          <mxGeometry x="245" y="290" width="40" height="20" as="geometry" />
        </mxCell>
        <mxCell id="ohssaYc-0jz3KBxIe88S-47" value="3rd" style="text;html=1;align=center;verticalAlign=middle;resizable=0;points=[];autosize=1;strokeColor=none;fillColor=none;" vertex="1" parent="1">
          <mxGeometry x="350" y="290" width="30" height="20" as="geometry" />
        </mxCell>
        <mxCell id="ohssaYc-0jz3KBxIe88S-48" value="4th" style="text;html=1;align=center;verticalAlign=middle;resizable=0;points=[];autosize=1;strokeColor=none;fillColor=none;" vertex="1" parent="1">
          <mxGeometry x="450" y="290" width="30" height="20" as="geometry" />
        </mxCell>
        <mxCell id="ohssaYc-0jz3KBxIe88S-49" value="5th" style="text;html=1;align=center;verticalAlign=middle;resizable=0;points=[];autosize=1;strokeColor=none;fillColor=none;" vertex="1" parent="1">
          <mxGeometry x="190" y="410" width="30" height="20" as="geometry" />
        </mxCell>
        <mxCell id="ohssaYc-0jz3KBxIe88S-50" value="6th" style="text;html=1;align=center;verticalAlign=middle;resizable=0;points=[];autosize=1;strokeColor=none;fillColor=none;" vertex="1" parent="1">
          <mxGeometry x="500" y="400" width="30" height="20" as="geometry" />
        </mxCell>
        <mxCell id="ohssaYc-0jz3KBxIe88S-51" value="7th" style="text;html=1;align=center;verticalAlign=middle;resizable=0;points=[];autosize=1;strokeColor=none;fillColor=none;" vertex="1" parent="1">
          <mxGeometry x="540" y="270" width="30" height="20" as="geometry" />
        </mxCell>
        <mxCell id="ohssaYc-0jz3KBxIe88S-52" value="8th" style="text;html=1;align=center;verticalAlign=middle;resizable=0;points=[];autosize=1;strokeColor=none;fillColor=none;" vertex="1" parent="1">
          <mxGeometry x="310" y="410" width="30" height="20" as="geometry" />
        </mxCell>
        <mxCell id="ohssaYc-0jz3KBxIe88S-53" value="9th" style="text;html=1;align=center;verticalAlign=middle;resizable=0;points=[];autosize=1;strokeColor=none;fillColor=none;" vertex="1" parent="1">
          <mxGeometry x="405" y="400" width="30" height="20" as="geometry" />
        </mxCell>
        <mxCell id="ohssaYc-0jz3KBxIe88S-54" value="10th" style="text;html=1;align=center;verticalAlign=middle;resizable=0;points=[];autosize=1;strokeColor=none;fillColor=none;" vertex="1" parent="1">
          <mxGeometry x="150" y="515" width="40" height="20" as="geometry" />
        </mxCell>
        <mxCell id="ohssaYc-0jz3KBxIe88S-55" value="11th" style="text;html=1;align=center;verticalAlign=middle;resizable=0;points=[];autosize=1;strokeColor=none;fillColor=none;" vertex="1" parent="1">
          <mxGeometry x="475" y="520" width="40" height="20" as="geometry" />
        </mxCell>
        <mxCell id="ohssaYc-0jz3KBxIe88S-57" value="All the nodes which were expanded are coloured" style="text;html=1;align=center;verticalAlign=middle;resizable=0;points=[];autosize=1;strokeColor=none;fillColor=none;fontColor=#FF0000;" vertex="1" parent="1">
          <mxGeometry x="630" y="220" width="270" height="20" as="geometry" />
        </mxCell>
        <mxCell id="ohssaYc-0jz3KBxIe88S-58" value="Souce: Bucharest" style="text;html=1;align=center;verticalAlign=middle;resizable=0;points=[];autosize=1;strokeColor=none;fillColor=none;fontColor=#FF0000;" vertex="1" parent="1">
          <mxGeometry x="705" y="250" width="110" height="20" as="geometry" />
        </mxCell>
        <mxCell id="ohssaYc-0jz3KBxIe88S-59" value="&lt;font color=&quot;#006600&quot;&gt;Destination: Sibiu&lt;/font&gt;" style="text;html=1;align=center;verticalAlign=middle;resizable=0;points=[];autosize=1;strokeColor=none;fillColor=none;fontColor=#FF0000;" vertex="1" parent="1">
          <mxGeometry x="705" y="270" width="110" height="20" as="geometry" />
        </mxCell>
        <mxCell id="ohssaYc-0jz3KBxIe88S-60" value="&lt;font color=&quot;#330000&quot;&gt;&lt;b&gt;The order in which nodes were expanded&amp;nbsp;&lt;br&gt;are in the left side of the node itself&lt;/b&gt;&lt;/font&gt;" style="text;html=1;align=center;verticalAlign=middle;resizable=0;points=[];autosize=1;strokeColor=none;fillColor=none;fontColor=#006600;" vertex="1" parent="1">
          <mxGeometry x="650" y="300" width="250" height="30" as="geometry" />
        </mxCell>
      </root>
    </mxGraphModel>
  </diagram>
</mxfile>
